<mxfile host="app.diagrams.net" modified="2023-03-08T08:15:48.901Z" agent="5.0 (Windows NT 10.0; Win64; x64) AppleWebKit/537.36 (KHTML, like Gecko) Chrome/110.0.0.0 Safari/537.36 Edg/110.0.1587.63" etag="0ZbGIaMSZVBvP_mwMHTY" version="21.0.2" type="github">
  <diagram id="8AWTnWIUCFOzMyRznTNa" name="Page-1">
    <mxGraphModel dx="1120" dy="1653" grid="1" gridSize="10" guides="1" tooltips="1" connect="1" arrows="1" fold="1" page="1" pageScale="1" pageWidth="827" pageHeight="1169" math="0" shadow="0">
      <root>
        <mxCell id="0" />
        <mxCell id="1" parent="0" />
        <mxCell id="UT3ZYnlgsG7LeVWoG45i-1" value="Éditeur" style="shape=umlActor;verticalLabelPosition=bottom;verticalAlign=top;html=1;outlineConnect=0;" parent="1" vertex="1">
          <mxGeometry x="130" y="75" width="30" height="60" as="geometry" />
        </mxCell>
        <mxCell id="UT3ZYnlgsG7LeVWoG45i-6" value="Pôle PK" style="shape=umlActor;verticalLabelPosition=bottom;verticalAlign=top;html=1;outlineConnect=0;" parent="1" vertex="1">
          <mxGeometry x="130" y="230" width="30" height="60" as="geometry" />
        </mxCell>
        <mxCell id="UT3ZYnlgsG7LeVWoG45i-7" value="Administrateur Prophyl" style="shape=umlActor;verticalLabelPosition=bottom;verticalAlign=top;html=1;outlineConnect=0;" parent="1" vertex="1">
          <mxGeometry x="130" y="415" width="30" height="60" as="geometry" />
        </mxCell>
        <mxCell id="UT3ZYnlgsG7LeVWoG45i-8" value="Consulter le contrat d&#39;interface" style="ellipse;whiteSpace=wrap;html=1;" parent="1" vertex="1">
          <mxGeometry x="282" y="100" width="166" height="80" as="geometry" />
        </mxCell>
        <mxCell id="UT3ZYnlgsG7LeVWoG45i-9" value="Lire et traiter les données sous CERISE" style="ellipse;whiteSpace=wrap;html=1;" parent="1" vertex="1">
          <mxGeometry x="294" y="220" width="166" height="80" as="geometry" />
        </mxCell>
        <mxCell id="UT3ZYnlgsG7LeVWoG45i-10" value="Ajouter un nouvel éditeur" style="ellipse;whiteSpace=wrap;html=1;" parent="1" vertex="1">
          <mxGeometry x="294" y="342.5" width="166" height="80" as="geometry" />
        </mxCell>
        <mxCell id="UT3ZYnlgsG7LeVWoG45i-16" value="" style="endArrow=classic;html=1;rounded=0;entryX=0.018;entryY=0.425;entryDx=0;entryDy=0;entryPerimeter=0;" parent="1" target="uCHEo-O8apgH9ctibJvO-3" edge="1">
          <mxGeometry width="50" height="50" relative="1" as="geometry">
            <mxPoint x="170" y="110" as="sourcePoint" />
            <mxPoint x="280" y="250" as="targetPoint" />
          </mxGeometry>
        </mxCell>
        <mxCell id="UT3ZYnlgsG7LeVWoG45i-17" value="" style="endArrow=classic;html=1;rounded=0;entryX=0;entryY=0.5;entryDx=0;entryDy=0;" parent="1" target="UT3ZYnlgsG7LeVWoG45i-9" edge="1">
          <mxGeometry width="50" height="50" relative="1" as="geometry">
            <mxPoint x="170" y="260" as="sourcePoint" />
            <mxPoint x="280" y="250" as="targetPoint" />
          </mxGeometry>
        </mxCell>
        <mxCell id="UT3ZYnlgsG7LeVWoG45i-18" value="" style="endArrow=classic;html=1;rounded=0;entryX=0.013;entryY=0.554;entryDx=0;entryDy=0;entryPerimeter=0;" parent="1" target="UT3ZYnlgsG7LeVWoG45i-10" edge="1">
          <mxGeometry width="50" height="50" relative="1" as="geometry">
            <mxPoint x="200" y="440" as="sourcePoint" />
            <mxPoint x="280" y="250" as="targetPoint" />
          </mxGeometry>
        </mxCell>
        <mxCell id="UT3ZYnlgsG7LeVWoG45i-23" value="Programmer ou lancer &lt;br&gt;l&#39;export des données vers CERISE" style="ellipse;whiteSpace=wrap;html=1;" parent="1" vertex="1">
          <mxGeometry x="294" y="450" width="166" height="80" as="geometry" />
        </mxCell>
        <mxCell id="UT3ZYnlgsG7LeVWoG45i-24" value="" style="endArrow=classic;html=1;rounded=0;entryX=0;entryY=0.5;entryDx=0;entryDy=0;" parent="1" target="UT3ZYnlgsG7LeVWoG45i-23" edge="1">
          <mxGeometry width="50" height="50" relative="1" as="geometry">
            <mxPoint x="210" y="480" as="sourcePoint" />
            <mxPoint x="470" y="390" as="targetPoint" />
          </mxGeometry>
        </mxCell>
        <mxCell id="UT3ZYnlgsG7LeVWoG45i-28" value="CERISE" style="shape=cylinder3;whiteSpace=wrap;html=1;boundedLbl=1;backgroundOutline=1;size=15;" parent="1" vertex="1">
          <mxGeometry x="1470" y="245" width="60" height="80" as="geometry" />
        </mxCell>
        <mxCell id="UT3ZYnlgsG7LeVWoG45i-29" value="API-MASA" style="rounded=0;whiteSpace=wrap;html=1;" parent="1" vertex="1">
          <mxGeometry x="1280" y="240" width="90" height="90" as="geometry" />
        </mxCell>
        <mxCell id="UT3ZYnlgsG7LeVWoG45i-30" value="" style="endArrow=classic;html=1;rounded=0;fillColor=#d5e8d4;strokeColor=#82b366;strokeWidth=2;" parent="1" source="fziT1A_no5ULl9o_RMi3-2" target="UT3ZYnlgsG7LeVWoG45i-29" edge="1">
          <mxGeometry width="50" height="50" relative="1" as="geometry">
            <mxPoint x="1190" y="285" as="sourcePoint" />
            <mxPoint x="1210" y="250" as="targetPoint" />
          </mxGeometry>
        </mxCell>
        <mxCell id="UT3ZYnlgsG7LeVWoG45i-31" value="données phyto consenties" style="text;html=1;strokeColor=#82b366;fillColor=#d5e8d4;align=center;verticalAlign=middle;whiteSpace=wrap;rounded=0;" parent="1" vertex="1">
          <mxGeometry x="1004" y="230" width="80" height="50" as="geometry" />
        </mxCell>
        <mxCell id="UT3ZYnlgsG7LeVWoG45i-34" value="" style="endArrow=classic;html=1;rounded=0;exitX=1;exitY=0.5;exitDx=0;exitDy=0;" parent="1" source="UT3ZYnlgsG7LeVWoG45i-29" target="UT3ZYnlgsG7LeVWoG45i-28" edge="1">
          <mxGeometry width="50" height="50" relative="1" as="geometry">
            <mxPoint x="960" y="370" as="sourcePoint" />
            <mxPoint x="1010" y="320" as="targetPoint" />
          </mxGeometry>
        </mxCell>
        <mxCell id="UT3ZYnlgsG7LeVWoG45i-42" value="" style="shape=image;html=1;verticalAlign=top;verticalLabelPosition=bottom;labelBackgroundColor=#ffffff;imageAspect=0;aspect=fixed;image=https://cdn4.iconfinder.com/data/icons/core-ui-outlined/32/outlined_settings-128.png" parent="1" vertex="1">
          <mxGeometry x="1340" y="300" width="30" height="30" as="geometry" />
        </mxCell>
        <mxCell id="02uK9gznkcmL4iNpRvFo-1" value="Agriculteur ou &lt;br&gt;assimilé" style="shape=umlActor;verticalLabelPosition=bottom;verticalAlign=top;html=1;outlineConnect=0;" parent="1" vertex="1">
          <mxGeometry x="619" y="2220" width="30" height="60" as="geometry" />
        </mxCell>
        <mxCell id="fziT1A_no5ULl9o_RMi3-7" style="edgeStyle=orthogonalEdgeStyle;rounded=0;orthogonalLoop=1;jettySize=auto;html=1;exitX=1;exitY=0.5;exitDx=0;exitDy=0;startArrow=none;startFill=0;fillColor=#d5e8d4;strokeColor=#82b366;strokeWidth=2;" parent="1" source="02uK9gznkcmL4iNpRvFo-12" target="fziT1A_no5ULl9o_RMi3-2" edge="1">
          <mxGeometry relative="1" as="geometry" />
        </mxCell>
        <mxCell id="02uK9gznkcmL4iNpRvFo-12" value="Logiciel SMAG&lt;br&gt;Constement &quot;interne&quot;" style="rounded=1;whiteSpace=wrap;html=1;" parent="1" vertex="1">
          <mxGeometry x="870" y="255" width="120" height="65" as="geometry" />
        </mxCell>
        <mxCell id="02uK9gznkcmL4iNpRvFo-14" value="" style="endArrow=classic;html=1;rounded=0;entryX=0;entryY=0.5;entryDx=0;entryDy=0;fillColor=#d5e8d4;strokeColor=#82b366;strokeWidth=2;" parent="1" target="02uK9gznkcmL4iNpRvFo-12" edge="1">
          <mxGeometry width="50" height="50" relative="1" as="geometry">
            <mxPoint x="750" y="288" as="sourcePoint" />
            <mxPoint x="790" y="260" as="targetPoint" />
          </mxGeometry>
        </mxCell>
        <mxCell id="fziT1A_no5ULl9o_RMi3-2" value="Api-Agro&lt;br&gt;AGDATAHUB" style="rounded=0;whiteSpace=wrap;html=1;" parent="1" vertex="1">
          <mxGeometry x="1100" y="242.5" width="80" height="90" as="geometry" />
        </mxCell>
        <mxCell id="fziT1A_no5ULl9o_RMi3-3" value="" style="sketch=0;pointerEvents=1;shadow=0;dashed=0;html=1;strokeColor=none;labelPosition=center;verticalLabelPosition=bottom;verticalAlign=top;outlineConnect=0;align=center;shape=mxgraph.office.security.lock_protected;fillColor=#CCCBCB;" parent="1" vertex="1">
          <mxGeometry x="1150" y="220" width="30" height="30" as="geometry" />
        </mxCell>
        <mxCell id="fziT1A_no5ULl9o_RMi3-9" value="API Proxy sans vérification du constement" style="text;html=1;strokeColor=none;fillColor=none;align=center;verticalAlign=middle;whiteSpace=wrap;rounded=0;" parent="1" vertex="1">
          <mxGeometry x="1065" y="170" width="150" height="30" as="geometry" />
        </mxCell>
        <mxCell id="fziT1A_no5ULl9o_RMi3-10" value="" style="endArrow=none;dashed=1;html=1;rounded=0;strokeWidth=2;entryX=0.5;entryY=1;entryDx=0;entryDy=0;exitX=0.5;exitY=0;exitDx=0;exitDy=0;" parent="1" source="fziT1A_no5ULl9o_RMi3-2" target="fziT1A_no5ULl9o_RMi3-9" edge="1">
          <mxGeometry width="50" height="50" relative="1" as="geometry">
            <mxPoint x="1000" y="310" as="sourcePoint" />
            <mxPoint x="1050" y="260" as="targetPoint" />
          </mxGeometry>
        </mxCell>
        <mxCell id="vLqkouYxA9hgfuU7-jr2-1" value="Logiciel Editeur" style="rounded=0;whiteSpace=wrap;html=1;" parent="1" vertex="1">
          <mxGeometry x="839" y="2260" width="120" height="60" as="geometry" />
        </mxCell>
        <mxCell id="vLqkouYxA9hgfuU7-jr2-2" value="Agriculteur" style="shape=umlActor;verticalLabelPosition=bottom;verticalAlign=top;html=1;outlineConnect=0;" parent="1" vertex="1">
          <mxGeometry x="699" y="245" width="30" height="60" as="geometry" />
        </mxCell>
        <mxCell id="vLqkouYxA9hgfuU7-jr2-4" value="Api-Agro&lt;br&gt;AGDATHUB" style="rounded=0;whiteSpace=wrap;html=1;" parent="1" vertex="1">
          <mxGeometry x="1049" y="2260" width="120" height="60" as="geometry" />
        </mxCell>
        <mxCell id="vLqkouYxA9hgfuU7-jr2-5" value="API&lt;br&gt;MASA" style="rounded=0;whiteSpace=wrap;html=1;" parent="1" vertex="1">
          <mxGeometry x="1429" y="2260" width="120" height="60" as="geometry" />
        </mxCell>
        <mxCell id="vLqkouYxA9hgfuU7-jr2-6" value="" style="endArrow=none;dashed=1;html=1;rounded=0;entryX=0.5;entryY=1;entryDx=0;entryDy=0;strokeWidth=2;" parent="1" target="vLqkouYxA9hgfuU7-jr2-1" edge="1">
          <mxGeometry width="50" height="50" relative="1" as="geometry">
            <mxPoint x="899.5" y="2690" as="sourcePoint" />
            <mxPoint x="1109.5" y="2480" as="targetPoint" />
          </mxGeometry>
        </mxCell>
        <mxCell id="vLqkouYxA9hgfuU7-jr2-7" value="" style="endArrow=none;dashed=1;html=1;rounded=0;entryX=0.5;entryY=1;entryDx=0;entryDy=0;strokeWidth=2;" parent="1" target="vLqkouYxA9hgfuU7-jr2-4" edge="1">
          <mxGeometry width="50" height="50" relative="1" as="geometry">
            <mxPoint x="1109" y="2690" as="sourcePoint" />
            <mxPoint x="1079" y="2480" as="targetPoint" />
          </mxGeometry>
        </mxCell>
        <mxCell id="vLqkouYxA9hgfuU7-jr2-8" value="" style="endArrow=none;dashed=1;html=1;rounded=0;entryX=0.5;entryY=1;entryDx=0;entryDy=0;strokeWidth=2;" parent="1" target="vLqkouYxA9hgfuU7-jr2-5" edge="1">
          <mxGeometry width="50" height="50" relative="1" as="geometry">
            <mxPoint x="1489" y="2690" as="sourcePoint" />
            <mxPoint x="1259" y="2330" as="targetPoint" />
          </mxGeometry>
        </mxCell>
        <mxCell id="vLqkouYxA9hgfuU7-jr2-10" value="" style="endArrow=classic;html=1;rounded=0;strokeWidth=2;fillColor=#d5e8d4;strokeColor=#82b366;" parent="1" edge="1">
          <mxGeometry width="50" height="50" relative="1" as="geometry">
            <mxPoint x="629" y="2370" as="sourcePoint" />
            <mxPoint x="899" y="2370" as="targetPoint" />
          </mxGeometry>
        </mxCell>
        <mxCell id="vLqkouYxA9hgfuU7-jr2-11" value="" style="endArrow=none;dashed=1;html=1;rounded=0;strokeWidth=2;" parent="1" edge="1">
          <mxGeometry width="50" height="50" relative="1" as="geometry">
            <mxPoint x="629" y="2690" as="sourcePoint" />
            <mxPoint x="629" y="2320" as="targetPoint" />
          </mxGeometry>
        </mxCell>
        <mxCell id="vLqkouYxA9hgfuU7-jr2-12" value="" style="endArrow=classic;html=1;rounded=0;strokeWidth=2;fillColor=#d5e8d4;strokeColor=#82b366;" parent="1" edge="1">
          <mxGeometry width="50" height="50" relative="1" as="geometry">
            <mxPoint x="899" y="2500" as="sourcePoint" />
            <mxPoint x="1109" y="2500" as="targetPoint" />
          </mxGeometry>
        </mxCell>
        <mxCell id="vLqkouYxA9hgfuU7-jr2-14" value="Agri-Consent&lt;br&gt;AGDATHUB" style="rounded=0;whiteSpace=wrap;html=1;" parent="1" vertex="1">
          <mxGeometry x="1229" y="2260" width="120" height="60" as="geometry" />
        </mxCell>
        <mxCell id="vLqkouYxA9hgfuU7-jr2-15" value="" style="endArrow=none;dashed=1;html=1;rounded=0;entryX=0.5;entryY=1;entryDx=0;entryDy=0;strokeWidth=2;" parent="1" target="vLqkouYxA9hgfuU7-jr2-14" edge="1">
          <mxGeometry width="50" height="50" relative="1" as="geometry">
            <mxPoint x="1289" y="2690" as="sourcePoint" />
            <mxPoint x="1259" y="2480" as="targetPoint" />
          </mxGeometry>
        </mxCell>
        <mxCell id="vLqkouYxA9hgfuU7-jr2-16" value="" style="endArrow=classic;html=1;rounded=0;strokeWidth=2;fillColor=#f8cecc;strokeColor=#b85450;" parent="1" edge="1">
          <mxGeometry width="50" height="50" relative="1" as="geometry">
            <mxPoint x="1109" y="2540" as="sourcePoint" />
            <mxPoint x="1289" y="2540" as="targetPoint" />
          </mxGeometry>
        </mxCell>
        <mxCell id="vLqkouYxA9hgfuU7-jr2-17" value="" style="endArrow=classic;html=1;rounded=0;strokeWidth=2;fillColor=#f8cecc;strokeColor=#b85450;" parent="1" edge="1">
          <mxGeometry width="50" height="50" relative="1" as="geometry">
            <mxPoint x="1289" y="2560" as="sourcePoint" />
            <mxPoint x="1109" y="2560" as="targetPoint" />
          </mxGeometry>
        </mxCell>
        <mxCell id="vLqkouYxA9hgfuU7-jr2-18" value="" style="endArrow=classic;html=1;rounded=0;strokeWidth=2;fillColor=#d5e8d4;strokeColor=#82b366;" parent="1" edge="1">
          <mxGeometry width="50" height="50" relative="1" as="geometry">
            <mxPoint x="1109" y="2630" as="sourcePoint" />
            <mxPoint x="1489" y="2630" as="targetPoint" />
          </mxGeometry>
        </mxCell>
        <mxCell id="vLqkouYxA9hgfuU7-jr2-19" value="" style="endArrow=classic;html=1;rounded=0;strokeWidth=2;fillColor=#f8cecc;strokeColor=#b85450;" parent="1" edge="1">
          <mxGeometry width="50" height="50" relative="1" as="geometry">
            <mxPoint x="629" y="2440" as="sourcePoint" />
            <mxPoint x="1289" y="2440" as="targetPoint" />
          </mxGeometry>
        </mxCell>
        <mxCell id="vLqkouYxA9hgfuU7-jr2-20" value="" style="endArrow=classic;html=1;rounded=0;strokeWidth=2;fillColor=#f8cecc;strokeColor=#b85450;" parent="1" edge="1">
          <mxGeometry width="50" height="50" relative="1" as="geometry">
            <mxPoint x="899" y="2400" as="sourcePoint" />
            <mxPoint x="629" y="2400" as="targetPoint" />
          </mxGeometry>
        </mxCell>
        <mxCell id="vLqkouYxA9hgfuU7-jr2-21" value="&lt;font style=&quot;font-size: 17px;&quot;&gt;&lt;b&gt;1&lt;/b&gt;&lt;/font&gt;" style="ellipse;whiteSpace=wrap;html=1;aspect=fixed;fillColor=#d5e8d4;strokeColor=#82b366;" parent="1" vertex="1">
          <mxGeometry x="689" y="2340" width="40" height="40" as="geometry" />
        </mxCell>
        <mxCell id="vLqkouYxA9hgfuU7-jr2-22" value="&lt;font style=&quot;font-size: 17px;&quot;&gt;&lt;b&gt;4&lt;/b&gt;&lt;/font&gt;" style="ellipse;whiteSpace=wrap;html=1;aspect=fixed;fillColor=#d5e8d4;strokeColor=#82b366;" parent="1" vertex="1">
          <mxGeometry x="989" y="2490" width="40" height="40" as="geometry" />
        </mxCell>
        <mxCell id="vLqkouYxA9hgfuU7-jr2-23" value="&lt;font style=&quot;font-size: 17px;&quot;&gt;&lt;b&gt;7&lt;/b&gt;&lt;/font&gt;" style="ellipse;whiteSpace=wrap;html=1;aspect=fixed;fillColor=#d5e8d4;strokeColor=#82b366;" parent="1" vertex="1">
          <mxGeometry x="1200" y="2640" width="40" height="40" as="geometry" />
        </mxCell>
        <mxCell id="vLqkouYxA9hgfuU7-jr2-24" value="&lt;font style=&quot;font-size: 17px;&quot;&gt;&lt;b&gt;2&lt;/b&gt;&lt;/font&gt;" style="ellipse;whiteSpace=wrap;html=1;aspect=fixed;fillColor=#f8cecc;strokeColor=#b85450;" parent="1" vertex="1">
          <mxGeometry x="769" y="2390" width="40" height="40" as="geometry" />
        </mxCell>
        <mxCell id="vLqkouYxA9hgfuU7-jr2-25" value="&lt;font style=&quot;font-size: 17px;&quot;&gt;&lt;b&gt;3&lt;/b&gt;&lt;/font&gt;" style="ellipse;whiteSpace=wrap;html=1;aspect=fixed;fillColor=#f8cecc;strokeColor=#b85450;" parent="1" vertex="1">
          <mxGeometry x="969" y="2410" width="40" height="40" as="geometry" />
        </mxCell>
        <mxCell id="vLqkouYxA9hgfuU7-jr2-26" value="&lt;font style=&quot;font-size: 17px;&quot;&gt;&lt;b&gt;5&lt;/b&gt;&lt;/font&gt;" style="ellipse;whiteSpace=wrap;html=1;aspect=fixed;fillColor=#f8cecc;strokeColor=#b85450;" parent="1" vertex="1">
          <mxGeometry x="1129" y="2510" width="40" height="40" as="geometry" />
        </mxCell>
        <mxCell id="vLqkouYxA9hgfuU7-jr2-27" value="&lt;font style=&quot;font-size: 17px;&quot;&gt;&lt;b&gt;6&lt;/b&gt;&lt;/font&gt;" style="ellipse;whiteSpace=wrap;html=1;aspect=fixed;fillColor=#f8cecc;strokeColor=#b85450;" parent="1" vertex="1">
          <mxGeometry x="1229" y="2550" width="40" height="40" as="geometry" />
        </mxCell>
        <mxCell id="vLqkouYxA9hgfuU7-jr2-28" value="&lt;font style=&quot;font-size: 17px;&quot;&gt;&lt;b&gt;1&lt;/b&gt;&lt;/font&gt;" style="ellipse;whiteSpace=wrap;html=1;aspect=fixed;fillColor=#d5e8d4;strokeColor=#82b366;" parent="1" vertex="1">
          <mxGeometry x="190" y="2795" width="40" height="40" as="geometry" />
        </mxCell>
        <mxCell id="vLqkouYxA9hgfuU7-jr2-29" value="&lt;font style=&quot;font-size: 17px;&quot;&gt;&lt;b&gt;2&lt;/b&gt;&lt;/font&gt;" style="ellipse;whiteSpace=wrap;html=1;aspect=fixed;fillColor=#f8cecc;strokeColor=#b85450;" parent="1" vertex="1">
          <mxGeometry x="190" y="2855" width="40" height="40" as="geometry" />
        </mxCell>
        <mxCell id="vLqkouYxA9hgfuU7-jr2-30" value="&lt;font style=&quot;font-size: 17px;&quot;&gt;&lt;b&gt;3&lt;/b&gt;&lt;/font&gt;" style="ellipse;whiteSpace=wrap;html=1;aspect=fixed;fillColor=#f8cecc;strokeColor=#b85450;" parent="1" vertex="1">
          <mxGeometry x="490" y="2795" width="40" height="40" as="geometry" />
        </mxCell>
        <mxCell id="vLqkouYxA9hgfuU7-jr2-31" value="&lt;font style=&quot;font-size: 17px;&quot;&gt;&lt;b&gt;4&lt;/b&gt;&lt;/font&gt;" style="ellipse;whiteSpace=wrap;html=1;aspect=fixed;fillColor=#d5e8d4;strokeColor=#82b366;" parent="1" vertex="1">
          <mxGeometry x="490" y="2845" width="40" height="40" as="geometry" />
        </mxCell>
        <mxCell id="vLqkouYxA9hgfuU7-jr2-32" value="&lt;font style=&quot;font-size: 17px;&quot;&gt;&lt;b&gt;5&lt;/b&gt;&lt;/font&gt;" style="ellipse;whiteSpace=wrap;html=1;aspect=fixed;fillColor=#f8cecc;strokeColor=#b85450;" parent="1" vertex="1">
          <mxGeometry x="790" y="2795" width="40" height="40" as="geometry" />
        </mxCell>
        <mxCell id="vLqkouYxA9hgfuU7-jr2-33" value="&lt;font style=&quot;font-size: 17px;&quot;&gt;&lt;b&gt;6&lt;/b&gt;&lt;/font&gt;" style="ellipse;whiteSpace=wrap;html=1;aspect=fixed;fillColor=#f8cecc;strokeColor=#b85450;" parent="1" vertex="1">
          <mxGeometry x="790" y="2845" width="40" height="40" as="geometry" />
        </mxCell>
        <mxCell id="vLqkouYxA9hgfuU7-jr2-34" value="&lt;font style=&quot;font-size: 17px;&quot;&gt;&lt;b&gt;7&lt;/b&gt;&lt;/font&gt;" style="ellipse;whiteSpace=wrap;html=1;aspect=fixed;fillColor=#d5e8d4;strokeColor=#82b366;" parent="1" vertex="1">
          <mxGeometry x="1160" y="2800" width="40" height="40" as="geometry" />
        </mxCell>
        <mxCell id="vLqkouYxA9hgfuU7-jr2-35" value="&lt;font style=&quot;font-size: 15px;&quot;&gt;L&#39;exploitatant saisit ses données&lt;/font&gt;" style="text;html=1;strokeColor=none;fillColor=none;align=left;verticalAlign=middle;whiteSpace=wrap;rounded=0;fontSize=17;" parent="1" vertex="1">
          <mxGeometry x="240" y="2800" width="250" height="30" as="geometry" />
        </mxCell>
        <mxCell id="vLqkouYxA9hgfuU7-jr2-36" value="&lt;font style=&quot;font-size: 15px;&quot;&gt;L&#39;éditeur demande son consentement pour envoyer ses données au MASA&lt;/font&gt;" style="text;html=1;strokeColor=none;fillColor=none;align=left;verticalAlign=middle;whiteSpace=wrap;rounded=0;fontSize=17;" parent="1" vertex="1">
          <mxGeometry x="240" y="2855" width="250" height="30" as="geometry" />
        </mxCell>
        <mxCell id="vLqkouYxA9hgfuU7-jr2-38" value="&lt;font style=&quot;font-size: 15px;&quot;&gt;Le constement de l&#39;exploitant est transféré à Agri-Consent&lt;/font&gt;" style="text;html=1;strokeColor=none;fillColor=none;align=left;verticalAlign=middle;whiteSpace=wrap;rounded=0;fontSize=17;" parent="1" vertex="1">
          <mxGeometry x="535" y="2800" width="225" height="30" as="geometry" />
        </mxCell>
        <mxCell id="vLqkouYxA9hgfuU7-jr2-39" value="&lt;span style=&quot;font-size: 15px;&quot;&gt;Le logiciel envoie les données à l&#39;Api proxyfiée&lt;/span&gt;" style="text;html=1;strokeColor=none;fillColor=none;align=left;verticalAlign=middle;whiteSpace=wrap;rounded=0;fontSize=17;" parent="1" vertex="1">
          <mxGeometry x="540" y="2850" width="185" height="30" as="geometry" />
        </mxCell>
        <mxCell id="vLqkouYxA9hgfuU7-jr2-40" value="&lt;span style=&quot;font-size: 15px;&quot;&gt;L&#39;Api-Agro vérifie auprès d&#39;Agri-Consent le consentement de l&#39;exploitant des données issues des requêtes&lt;/span&gt;" style="text;html=1;strokeColor=none;fillColor=none;align=left;verticalAlign=middle;whiteSpace=wrap;rounded=0;fontSize=17;" parent="1" vertex="1">
          <mxGeometry x="835" y="2800" width="304" height="30" as="geometry" />
        </mxCell>
        <mxCell id="vLqkouYxA9hgfuU7-jr2-41" value="&lt;span style=&quot;font-size: 15px;&quot;&gt;Retour du consentement&lt;/span&gt;" style="text;html=1;strokeColor=none;fillColor=none;align=left;verticalAlign=middle;whiteSpace=wrap;rounded=0;fontSize=17;" parent="1" vertex="1">
          <mxGeometry x="840" y="2850" width="265" height="30" as="geometry" />
        </mxCell>
        <mxCell id="vLqkouYxA9hgfuU7-jr2-42" value="&lt;span style=&quot;font-size: 15px;&quot;&gt;L&#39;Api-Agro transfère les requêtes pour lesquelles il y a eu un consentement de l&#39;exploitant&lt;/span&gt;" style="text;html=1;strokeColor=none;fillColor=none;align=left;verticalAlign=middle;whiteSpace=wrap;rounded=0;fontSize=17;" parent="1" vertex="1">
          <mxGeometry x="1219" y="2805" width="265" height="30" as="geometry" />
        </mxCell>
        <mxCell id="aeYtuNE8nnBWFGJ9Q0Ma-4" value="&lt;b&gt;Mes parcelles&lt;/b&gt; : toutes les flèches" style="text;html=1;strokeColor=none;fillColor=none;align=left;verticalAlign=middle;whiteSpace=wrap;rounded=0;" parent="1" vertex="1">
          <mxGeometry x="1095" y="-10" width="189" height="30" as="geometry" />
        </mxCell>
        <mxCell id="aeYtuNE8nnBWFGJ9Q0Ma-5" value="&lt;b&gt;Isagri&lt;/b&gt; : flèches vertes+violettes&amp;nbsp;" style="text;html=1;strokeColor=none;fillColor=none;align=left;verticalAlign=middle;whiteSpace=wrap;rounded=0;" parent="1" vertex="1">
          <mxGeometry x="1094" y="15" width="189" height="30" as="geometry" />
        </mxCell>
        <mxCell id="aeYtuNE8nnBWFGJ9Q0Ma-6" value="&lt;b&gt;SMAG&lt;/b&gt; : flèches vertes&amp;nbsp;" style="text;html=1;strokeColor=none;fillColor=none;align=left;verticalAlign=middle;whiteSpace=wrap;rounded=0;" parent="1" vertex="1">
          <mxGeometry x="1095" y="45" width="200" height="30" as="geometry" />
        </mxCell>
        <mxCell id="aeYtuNE8nnBWFGJ9Q0Ma-8" value="&lt;b&gt;2 offres d&#39;API Proxy&lt;/b&gt;:&lt;br&gt;&lt;div style=&quot;&quot;&gt;&lt;span style=&quot;background-color: initial;&quot;&gt;- une avec verification de consentement&lt;/span&gt;&lt;/div&gt;&lt;div style=&quot;&quot;&gt;&lt;span style=&quot;background-color: initial;&quot;&gt;- une sans verification de consentement (api&amp;nbsp; ouverte en &quot;privé&quot;)&lt;/span&gt;&lt;/div&gt;" style="rounded=0;whiteSpace=wrap;html=1;align=center;" parent="1" vertex="1">
          <mxGeometry x="820" y="10" width="220" height="90" as="geometry" />
        </mxCell>
        <mxCell id="ccre-ZRpdGcNiAsm3sCi-35" value="CERISE" style="shape=cylinder3;whiteSpace=wrap;html=1;boundedLbl=1;backgroundOutline=1;size=15;" parent="1" vertex="1">
          <mxGeometry x="1464" y="455" width="60" height="80" as="geometry" />
        </mxCell>
        <mxCell id="ccre-ZRpdGcNiAsm3sCi-36" value="API" style="rounded=0;whiteSpace=wrap;html=1;" parent="1" vertex="1">
          <mxGeometry x="1274" y="450" width="90" height="90" as="geometry" />
        </mxCell>
        <mxCell id="ccre-ZRpdGcNiAsm3sCi-37" value="" style="endArrow=classic;html=1;rounded=0;fillColor=#d5e8d4;strokeColor=#82b366;strokeWidth=2;" parent="1" source="ccre-ZRpdGcNiAsm3sCi-57" target="ccre-ZRpdGcNiAsm3sCi-36" edge="1">
          <mxGeometry width="50" height="50" relative="1" as="geometry">
            <mxPoint x="1184" y="495" as="sourcePoint" />
            <mxPoint x="1204" y="460" as="targetPoint" />
          </mxGeometry>
        </mxCell>
        <mxCell id="ccre-ZRpdGcNiAsm3sCi-38" value="données phyto présumées consenties" style="text;html=1;strokeColor=#d6b656;fillColor=#fff2cc;align=center;verticalAlign=middle;whiteSpace=wrap;rounded=0;" parent="1" vertex="1">
          <mxGeometry x="989" y="422.5" width="91" height="55" as="geometry" />
        </mxCell>
        <mxCell id="ccre-ZRpdGcNiAsm3sCi-39" value="" style="endArrow=classic;html=1;rounded=0;exitX=1;exitY=0.5;exitDx=0;exitDy=0;" parent="1" source="ccre-ZRpdGcNiAsm3sCi-36" target="ccre-ZRpdGcNiAsm3sCi-35" edge="1">
          <mxGeometry width="50" height="50" relative="1" as="geometry">
            <mxPoint x="954" y="580" as="sourcePoint" />
            <mxPoint x="1004" y="530" as="targetPoint" />
          </mxGeometry>
        </mxCell>
        <mxCell id="ccre-ZRpdGcNiAsm3sCi-42" value="" style="shape=image;html=1;verticalAlign=top;verticalLabelPosition=bottom;labelBackgroundColor=#ffffff;imageAspect=0;aspect=fixed;image=https://cdn4.iconfinder.com/data/icons/core-ui-outlined/32/outlined_settings-128.png" parent="1" vertex="1">
          <mxGeometry x="1334" y="510" width="30" height="30" as="geometry" />
        </mxCell>
        <mxCell id="ccre-ZRpdGcNiAsm3sCi-45" style="rounded=0;orthogonalLoop=1;jettySize=auto;html=1;exitX=1;exitY=0.5;exitDx=0;exitDy=0;entryX=0;entryY=0.5;entryDx=0;entryDy=0;entryPerimeter=0;startArrow=none;startFill=0;fillColor=#e1d5e7;strokeColor=#9673a6;strokeWidth=2;" parent="1" source="ccre-ZRpdGcNiAsm3sCi-47" target="ccre-ZRpdGcNiAsm3sCi-59" edge="1">
          <mxGeometry relative="1" as="geometry" />
        </mxCell>
        <mxCell id="ccre-ZRpdGcNiAsm3sCi-46" value="" style="edgeStyle=orthogonalEdgeStyle;rounded=0;orthogonalLoop=1;jettySize=auto;html=1;fillColor=#dae8fc;strokeColor=#6c8ebf;startArrow=classic;startFill=1;endArrow=none;endFill=0;strokeWidth=2;" parent="1" source="ccre-ZRpdGcNiAsm3sCi-47" target="ccre-ZRpdGcNiAsm3sCi-64" edge="1">
          <mxGeometry relative="1" as="geometry" />
        </mxCell>
        <mxCell id="ccre-ZRpdGcNiAsm3sCi-47" value="Agri-Consent&lt;br&gt;AGDATAHUB" style="rounded=1;whiteSpace=wrap;html=1;" parent="1" vertex="1">
          <mxGeometry x="864" y="600" width="120" height="60" as="geometry" />
        </mxCell>
        <mxCell id="ccre-ZRpdGcNiAsm3sCi-50" style="edgeStyle=orthogonalEdgeStyle;rounded=0;orthogonalLoop=1;jettySize=auto;html=1;exitX=1;exitY=0.5;exitDx=0;exitDy=0;startArrow=none;startFill=0;fillColor=#fff2cc;strokeColor=#d6b656;strokeWidth=2;" parent="1" source="ccre-ZRpdGcNiAsm3sCi-51" target="ccre-ZRpdGcNiAsm3sCi-57" edge="1">
          <mxGeometry relative="1" as="geometry" />
        </mxCell>
        <mxCell id="ccre-ZRpdGcNiAsm3sCi-51" value="Logiciel ISAGRI&lt;br&gt;Confirmation de consentement" style="rounded=1;whiteSpace=wrap;html=1;" parent="1" vertex="1">
          <mxGeometry x="864" y="465" width="120" height="65" as="geometry" />
        </mxCell>
        <mxCell id="ccre-ZRpdGcNiAsm3sCi-52" value="" style="endArrow=classic;html=1;rounded=0;entryX=0;entryY=0.5;entryDx=0;entryDy=0;fillColor=#fff2cc;strokeColor=#d6b656;strokeWidth=2;" parent="1" target="ccre-ZRpdGcNiAsm3sCi-51" edge="1">
          <mxGeometry width="50" height="50" relative="1" as="geometry">
            <mxPoint x="744" y="540" as="sourcePoint" />
            <mxPoint x="784" y="470" as="targetPoint" />
          </mxGeometry>
        </mxCell>
        <mxCell id="ccre-ZRpdGcNiAsm3sCi-53" value="" style="endArrow=classic;html=1;rounded=0;entryX=0;entryY=0.5;entryDx=0;entryDy=0;fillColor=#e1d5e7;strokeColor=#9673a6;strokeWidth=2;" parent="1" target="ccre-ZRpdGcNiAsm3sCi-47" edge="1">
          <mxGeometry width="50" height="50" relative="1" as="geometry">
            <mxPoint x="744" y="570" as="sourcePoint" />
            <mxPoint x="784" y="470" as="targetPoint" />
          </mxGeometry>
        </mxCell>
        <mxCell id="ccre-ZRpdGcNiAsm3sCi-56" style="edgeStyle=orthogonalEdgeStyle;rounded=0;orthogonalLoop=1;jettySize=auto;html=1;exitX=0.5;exitY=1;exitDx=0;exitDy=0;entryX=0.5;entryY=0;entryDx=0;entryDy=0;entryPerimeter=0;startArrow=classic;startFill=1;" parent="1" source="ccre-ZRpdGcNiAsm3sCi-57" target="ccre-ZRpdGcNiAsm3sCi-59" edge="1">
          <mxGeometry relative="1" as="geometry" />
        </mxCell>
        <mxCell id="ccre-ZRpdGcNiAsm3sCi-57" value="Api-Agro&lt;br&gt;AGDATAHUB" style="rounded=0;whiteSpace=wrap;html=1;" parent="1" vertex="1">
          <mxGeometry x="1094" y="452.5" width="80" height="90" as="geometry" />
        </mxCell>
        <mxCell id="ccre-ZRpdGcNiAsm3sCi-58" value="" style="sketch=0;pointerEvents=1;shadow=0;dashed=0;html=1;strokeColor=none;labelPosition=center;verticalLabelPosition=bottom;verticalAlign=top;outlineConnect=0;align=center;shape=mxgraph.office.security.lock_protected;fillColor=#CCCBCB;" parent="1" vertex="1">
          <mxGeometry x="1144" y="430" width="30" height="30" as="geometry" />
        </mxCell>
        <mxCell id="ccre-ZRpdGcNiAsm3sCi-59" value="Consentement" style="shape=cylinder3;whiteSpace=wrap;html=1;boundedLbl=1;backgroundOutline=1;size=15;" parent="1" vertex="1">
          <mxGeometry x="1104" y="600" width="60" height="80" as="geometry" />
        </mxCell>
        <mxCell id="ccre-ZRpdGcNiAsm3sCi-60" value="Vérification du consentement" style="text;html=1;strokeColor=none;fillColor=none;align=center;verticalAlign=middle;whiteSpace=wrap;rounded=0;" parent="1" vertex="1">
          <mxGeometry x="1034" y="570" width="90" height="30" as="geometry" />
        </mxCell>
        <mxCell id="ccre-ZRpdGcNiAsm3sCi-61" value="API Proxy" style="text;html=1;strokeColor=none;fillColor=none;align=center;verticalAlign=middle;whiteSpace=wrap;rounded=0;" parent="1" vertex="1">
          <mxGeometry x="1100" y="380" width="60" height="30" as="geometry" />
        </mxCell>
        <mxCell id="ccre-ZRpdGcNiAsm3sCi-62" value="" style="endArrow=none;dashed=1;html=1;rounded=0;strokeWidth=2;entryX=0.5;entryY=1;entryDx=0;entryDy=0;exitX=0.5;exitY=0;exitDx=0;exitDy=0;" parent="1" source="ccre-ZRpdGcNiAsm3sCi-57" edge="1">
          <mxGeometry width="50" height="50" relative="1" as="geometry">
            <mxPoint x="994" y="520" as="sourcePoint" />
            <mxPoint x="1134" y="410" as="targetPoint" />
          </mxGeometry>
        </mxCell>
        <mxCell id="ccre-ZRpdGcNiAsm3sCi-63" value="Agriculteur" style="shape=umlActor;verticalLabelPosition=bottom;verticalAlign=top;html=1;outlineConnect=0;" parent="1" vertex="1">
          <mxGeometry x="704" y="530" width="30" height="60" as="geometry" />
        </mxCell>
        <mxCell id="ccre-ZRpdGcNiAsm3sCi-64" value="&lt;b&gt;MASA&lt;/b&gt;&lt;br&gt;(Bénificiaire des données)" style="rounded=1;whiteSpace=wrap;html=1;" parent="1" vertex="1">
          <mxGeometry x="864" y="700" width="120" height="60" as="geometry" />
        </mxCell>
        <mxCell id="ccre-ZRpdGcNiAsm3sCi-67" value="CERISE" style="shape=cylinder3;whiteSpace=wrap;html=1;boundedLbl=1;backgroundOutline=1;size=15;" parent="1" vertex="1">
          <mxGeometry x="1464" y="875" width="60" height="80" as="geometry" />
        </mxCell>
        <mxCell id="ccre-ZRpdGcNiAsm3sCi-68" value="API" style="rounded=0;whiteSpace=wrap;html=1;" parent="1" vertex="1">
          <mxGeometry x="1274" y="870" width="90" height="90" as="geometry" />
        </mxCell>
        <mxCell id="ccre-ZRpdGcNiAsm3sCi-69" value="" style="endArrow=classic;html=1;rounded=0;fillColor=#d5e8d4;strokeColor=#82b366;strokeWidth=2;" parent="1" source="ccre-ZRpdGcNiAsm3sCi-89" target="ccre-ZRpdGcNiAsm3sCi-68" edge="1">
          <mxGeometry width="50" height="50" relative="1" as="geometry">
            <mxPoint x="1184" y="915" as="sourcePoint" />
            <mxPoint x="1204" y="880" as="targetPoint" />
          </mxGeometry>
        </mxCell>
        <mxCell id="ccre-ZRpdGcNiAsm3sCi-70" value="données phyto consenties" style="text;html=1;strokeColor=#82b366;fillColor=#d5e8d4;align=center;verticalAlign=middle;whiteSpace=wrap;rounded=0;" parent="1" vertex="1">
          <mxGeometry x="1181" y="860" width="80" height="50" as="geometry" />
        </mxCell>
        <mxCell id="ccre-ZRpdGcNiAsm3sCi-71" value="" style="endArrow=classic;html=1;rounded=0;exitX=1;exitY=0.5;exitDx=0;exitDy=0;" parent="1" source="ccre-ZRpdGcNiAsm3sCi-68" target="ccre-ZRpdGcNiAsm3sCi-67" edge="1">
          <mxGeometry width="50" height="50" relative="1" as="geometry">
            <mxPoint x="954" y="1000" as="sourcePoint" />
            <mxPoint x="1004" y="950" as="targetPoint" />
          </mxGeometry>
        </mxCell>
        <mxCell id="ccre-ZRpdGcNiAsm3sCi-72" value="données standard CSV" style="text;html=1;strokeColor=none;fillColor=none;align=center;verticalAlign=middle;whiteSpace=wrap;rounded=0;" parent="1" vertex="1">
          <mxGeometry x="1384" y="875" width="60" height="30" as="geometry" />
        </mxCell>
        <mxCell id="ccre-ZRpdGcNiAsm3sCi-74" value="" style="shape=image;html=1;verticalAlign=top;verticalLabelPosition=bottom;labelBackgroundColor=#ffffff;imageAspect=0;aspect=fixed;image=https://cdn4.iconfinder.com/data/icons/core-ui-outlined/32/outlined_settings-128.png" parent="1" vertex="1">
          <mxGeometry x="1334" y="930" width="30" height="30" as="geometry" />
        </mxCell>
        <mxCell id="ccre-ZRpdGcNiAsm3sCi-77" style="rounded=0;orthogonalLoop=1;jettySize=auto;html=1;exitX=1;exitY=0.5;exitDx=0;exitDy=0;entryX=0;entryY=0.5;entryDx=0;entryDy=0;entryPerimeter=0;startArrow=none;startFill=0;fillColor=#e1d5e7;strokeColor=#9673a6;strokeWidth=2;" parent="1" source="ccre-ZRpdGcNiAsm3sCi-79" target="ccre-ZRpdGcNiAsm3sCi-91" edge="1">
          <mxGeometry relative="1" as="geometry" />
        </mxCell>
        <mxCell id="ccre-ZRpdGcNiAsm3sCi-78" value="" style="edgeStyle=orthogonalEdgeStyle;rounded=0;orthogonalLoop=1;jettySize=auto;html=1;fillColor=#dae8fc;strokeColor=#6c8ebf;startArrow=classic;startFill=1;endArrow=none;endFill=0;strokeWidth=2;" parent="1" source="ccre-ZRpdGcNiAsm3sCi-79" target="ccre-ZRpdGcNiAsm3sCi-96" edge="1">
          <mxGeometry relative="1" as="geometry" />
        </mxCell>
        <mxCell id="ccre-ZRpdGcNiAsm3sCi-79" value="Agri-Consent&lt;br&gt;AGDATAHUB" style="rounded=1;whiteSpace=wrap;html=1;" parent="1" vertex="1">
          <mxGeometry x="864" y="1020" width="120" height="60" as="geometry" />
        </mxCell>
        <mxCell id="ccre-ZRpdGcNiAsm3sCi-80" value="" style="endArrow=classic;startArrow=classic;html=1;rounded=0;exitX=0.5;exitY=0;exitDx=0;exitDy=0;entryX=0.5;entryY=1;entryDx=0;entryDy=0;fillColor=#dae8fc;strokeColor=#6c8ebf;strokeWidth=2;" parent="1" source="ccre-ZRpdGcNiAsm3sCi-79" target="ccre-ZRpdGcNiAsm3sCi-83" edge="1">
          <mxGeometry width="50" height="50" relative="1" as="geometry">
            <mxPoint x="924" y="960" as="sourcePoint" />
            <mxPoint x="824" y="840" as="targetPoint" />
          </mxGeometry>
        </mxCell>
        <mxCell id="ccre-ZRpdGcNiAsm3sCi-81" value="Demande et prise du consentement" style="text;html=1;strokeColor=#6c8ebf;fillColor=#dae8fc;align=center;verticalAlign=middle;whiteSpace=wrap;rounded=0;" parent="1" vertex="1">
          <mxGeometry x="790" y="960" width="116" height="30" as="geometry" />
        </mxCell>
        <mxCell id="ccre-ZRpdGcNiAsm3sCi-82" style="edgeStyle=orthogonalEdgeStyle;rounded=0;orthogonalLoop=1;jettySize=auto;html=1;exitX=1;exitY=0.5;exitDx=0;exitDy=0;startArrow=none;startFill=0;fillColor=#fff2cc;strokeColor=#d6b656;strokeWidth=2;" parent="1" source="ccre-ZRpdGcNiAsm3sCi-83" target="ccre-ZRpdGcNiAsm3sCi-89" edge="1">
          <mxGeometry relative="1" as="geometry" />
        </mxCell>
        <mxCell id="ccre-ZRpdGcNiAsm3sCi-83" value="Logiciel Editeur" style="rounded=1;whiteSpace=wrap;html=1;" parent="1" vertex="1">
          <mxGeometry x="864" y="885" width="120" height="65" as="geometry" />
        </mxCell>
        <mxCell id="ccre-ZRpdGcNiAsm3sCi-84" value="" style="endArrow=classic;html=1;rounded=0;entryX=0;entryY=0.5;entryDx=0;entryDy=0;fillColor=#fff2cc;strokeColor=#d6b656;strokeWidth=2;" parent="1" target="ccre-ZRpdGcNiAsm3sCi-83" edge="1">
          <mxGeometry width="50" height="50" relative="1" as="geometry">
            <mxPoint x="740" y="918" as="sourcePoint" />
            <mxPoint x="784" y="890" as="targetPoint" />
          </mxGeometry>
        </mxCell>
        <mxCell id="ccre-ZRpdGcNiAsm3sCi-86" value="données phyto" style="text;html=1;strokeColor=#d6b656;fillColor=#fff2cc;align=center;verticalAlign=middle;whiteSpace=wrap;rounded=0;" parent="1" vertex="1">
          <mxGeometry x="1004" y="870" width="70" height="30" as="geometry" />
        </mxCell>
        <mxCell id="ccre-ZRpdGcNiAsm3sCi-88" style="edgeStyle=orthogonalEdgeStyle;rounded=0;orthogonalLoop=1;jettySize=auto;html=1;exitX=0.5;exitY=1;exitDx=0;exitDy=0;entryX=0.5;entryY=0;entryDx=0;entryDy=0;entryPerimeter=0;startArrow=classic;startFill=1;" parent="1" source="ccre-ZRpdGcNiAsm3sCi-89" target="ccre-ZRpdGcNiAsm3sCi-91" edge="1">
          <mxGeometry relative="1" as="geometry" />
        </mxCell>
        <mxCell id="ccre-ZRpdGcNiAsm3sCi-89" value="Api-Agro&lt;br&gt;AGDATAHUB" style="rounded=0;whiteSpace=wrap;html=1;" parent="1" vertex="1">
          <mxGeometry x="1094" y="872.5" width="80" height="90" as="geometry" />
        </mxCell>
        <mxCell id="ccre-ZRpdGcNiAsm3sCi-90" value="" style="sketch=0;pointerEvents=1;shadow=0;dashed=0;html=1;strokeColor=none;labelPosition=center;verticalLabelPosition=bottom;verticalAlign=top;outlineConnect=0;align=center;shape=mxgraph.office.security.lock_protected;fillColor=#CCCBCB;" parent="1" vertex="1">
          <mxGeometry x="1144" y="850" width="30" height="30" as="geometry" />
        </mxCell>
        <mxCell id="ccre-ZRpdGcNiAsm3sCi-91" value="Consentement" style="shape=cylinder3;whiteSpace=wrap;html=1;boundedLbl=1;backgroundOutline=1;size=15;" parent="1" vertex="1">
          <mxGeometry x="1104" y="1020" width="60" height="80" as="geometry" />
        </mxCell>
        <mxCell id="ccre-ZRpdGcNiAsm3sCi-92" value="Vérification du consentement" style="text;html=1;strokeColor=none;fillColor=none;align=center;verticalAlign=middle;whiteSpace=wrap;rounded=0;" parent="1" vertex="1">
          <mxGeometry x="1034" y="990" width="90" height="30" as="geometry" />
        </mxCell>
        <mxCell id="ccre-ZRpdGcNiAsm3sCi-93" value="API Proxy" style="text;html=1;strokeColor=none;fillColor=none;align=center;verticalAlign=middle;whiteSpace=wrap;rounded=0;" parent="1" vertex="1">
          <mxGeometry x="1104" y="800" width="60" height="30" as="geometry" />
        </mxCell>
        <mxCell id="ccre-ZRpdGcNiAsm3sCi-94" value="" style="endArrow=none;dashed=1;html=1;rounded=0;strokeWidth=2;entryX=0.5;entryY=1;entryDx=0;entryDy=0;exitX=0.5;exitY=0;exitDx=0;exitDy=0;" parent="1" source="ccre-ZRpdGcNiAsm3sCi-89" target="ccre-ZRpdGcNiAsm3sCi-93" edge="1">
          <mxGeometry width="50" height="50" relative="1" as="geometry">
            <mxPoint x="994" y="940" as="sourcePoint" />
            <mxPoint x="1044" y="890" as="targetPoint" />
          </mxGeometry>
        </mxCell>
        <mxCell id="ccre-ZRpdGcNiAsm3sCi-95" value="Agriculteur" style="shape=umlActor;verticalLabelPosition=bottom;verticalAlign=top;html=1;outlineConnect=0;" parent="1" vertex="1">
          <mxGeometry x="699" y="890" width="30" height="60" as="geometry" />
        </mxCell>
        <mxCell id="ccre-ZRpdGcNiAsm3sCi-96" value="&lt;b&gt;MASA&lt;/b&gt;&lt;br&gt;(Bénificiaire des données)" style="rounded=1;whiteSpace=wrap;html=1;" parent="1" vertex="1">
          <mxGeometry x="864" y="1120" width="120" height="60" as="geometry" />
        </mxCell>
        <mxCell id="ccre-ZRpdGcNiAsm3sCi-97" value="données phyto consenties" style="text;html=1;strokeColor=#82b366;fillColor=#d5e8d4;align=center;verticalAlign=middle;whiteSpace=wrap;rounded=0;" parent="1" vertex="1">
          <mxGeometry x="1189" y="230" width="80" height="50" as="geometry" />
        </mxCell>
        <mxCell id="ccre-ZRpdGcNiAsm3sCi-98" value="données phyto consenties" style="text;html=1;strokeColor=#82b366;fillColor=#d5e8d4;align=center;verticalAlign=middle;whiteSpace=wrap;rounded=0;" parent="1" vertex="1">
          <mxGeometry x="1180.5" y="435" width="80" height="50" as="geometry" />
        </mxCell>
        <mxCell id="ccre-ZRpdGcNiAsm3sCi-99" value="Remplissage des données pyhto" style="text;html=1;strokeColor=none;fillColor=none;align=center;verticalAlign=middle;whiteSpace=wrap;rounded=0;" parent="1" vertex="1">
          <mxGeometry x="760" y="245" width="95" height="30" as="geometry" />
        </mxCell>
        <mxCell id="ccre-ZRpdGcNiAsm3sCi-100" value="Remplissage des données pyhto" style="text;html=1;strokeColor=none;fillColor=none;align=center;verticalAlign=middle;whiteSpace=wrap;rounded=0;" parent="1" vertex="1">
          <mxGeometry x="734" y="475" width="95" height="30" as="geometry" />
        </mxCell>
        <mxCell id="ccre-ZRpdGcNiAsm3sCi-101" value="Consentement auprès d&#39;Agri-Consent" style="text;html=1;strokeColor=none;fillColor=none;align=center;verticalAlign=middle;whiteSpace=wrap;rounded=0;" parent="1" vertex="1">
          <mxGeometry x="718.5" y="625" width="126" height="30" as="geometry" />
        </mxCell>
        <mxCell id="ccre-ZRpdGcNiAsm3sCi-103" value="&lt;font style=&quot;font-size: 19px;&quot;&gt;&lt;b&gt;SMAG&lt;/b&gt;&lt;/font&gt;" style="text;html=1;strokeColor=none;fillColor=none;align=center;verticalAlign=middle;whiteSpace=wrap;rounded=0;" parent="1" vertex="1">
          <mxGeometry x="580" y="260" width="60" height="30" as="geometry" />
        </mxCell>
        <mxCell id="ccre-ZRpdGcNiAsm3sCi-104" value="&lt;font style=&quot;font-size: 19px;&quot;&gt;&lt;b&gt;ISAGRI&lt;/b&gt;&lt;/font&gt;" style="text;html=1;strokeColor=none;fillColor=none;align=center;verticalAlign=middle;whiteSpace=wrap;rounded=0;" parent="1" vertex="1">
          <mxGeometry x="570" y="545" width="60" height="30" as="geometry" />
        </mxCell>
        <mxCell id="ccre-ZRpdGcNiAsm3sCi-105" value="Consentement autonome" style="text;html=1;strokeColor=none;fillColor=none;align=center;verticalAlign=middle;whiteSpace=wrap;rounded=0;fontSize=16;" parent="1" vertex="1">
          <mxGeometry x="555" y="290" width="110" height="30" as="geometry" />
        </mxCell>
        <mxCell id="ccre-ZRpdGcNiAsm3sCi-106" value="Consentement via AGDATAHUB" style="text;html=1;strokeColor=none;fillColor=none;align=center;verticalAlign=middle;whiteSpace=wrap;rounded=0;fontSize=16;" parent="1" vertex="1">
          <mxGeometry x="532.5" y="575" width="135" height="30" as="geometry" />
        </mxCell>
        <mxCell id="ccre-ZRpdGcNiAsm3sCi-107" value="Consentement&amp;nbsp; via AGDATAHUB intégré au logiciel" style="text;html=1;strokeColor=none;fillColor=none;align=center;verticalAlign=middle;whiteSpace=wrap;rounded=0;fontSize=16;" parent="1" vertex="1">
          <mxGeometry x="505.75" y="953.75" width="135" height="30" as="geometry" />
        </mxCell>
        <mxCell id="ccre-ZRpdGcNiAsm3sCi-108" value="&lt;font style=&quot;font-size: 19px;&quot;&gt;&lt;b&gt;MES PARCELLES&lt;/b&gt;&lt;/font&gt;" style="text;html=1;strokeColor=none;fillColor=none;align=center;verticalAlign=middle;whiteSpace=wrap;rounded=0;" parent="1" vertex="1">
          <mxGeometry x="479" y="906.25" width="188.5" height="30" as="geometry" />
        </mxCell>
        <mxCell id="uCHEo-O8apgH9ctibJvO-3" value="Envoyer les données" style="ellipse;whiteSpace=wrap;html=1;" vertex="1" parent="1">
          <mxGeometry x="282" width="166" height="80" as="geometry" />
        </mxCell>
        <mxCell id="uCHEo-O8apgH9ctibJvO-4" value="" style="endArrow=classic;html=1;rounded=0;entryX=0;entryY=0.5;entryDx=0;entryDy=0;" edge="1" parent="1" target="UT3ZYnlgsG7LeVWoG45i-8">
          <mxGeometry width="50" height="50" relative="1" as="geometry">
            <mxPoint x="180" y="120" as="sourcePoint" />
            <mxPoint x="307" y="44" as="targetPoint" />
          </mxGeometry>
        </mxCell>
        <mxCell id="uCHEo-O8apgH9ctibJvO-5" value="CERISE" style="shape=cylinder3;whiteSpace=wrap;html=1;boundedLbl=1;backgroundOutline=1;size=15;" vertex="1" parent="1">
          <mxGeometry x="850" y="1325" width="60" height="80" as="geometry" />
        </mxCell>
        <mxCell id="uCHEo-O8apgH9ctibJvO-6" value="API Prophyl" style="rounded=0;whiteSpace=wrap;html=1;" vertex="1" parent="1">
          <mxGeometry x="660" y="1320" width="90" height="90" as="geometry" />
        </mxCell>
        <mxCell id="uCHEo-O8apgH9ctibJvO-7" value="" style="endArrow=classic;html=1;rounded=0;fillColor=#d5e8d4;strokeColor=#82b366;strokeWidth=2;" edge="1" parent="1" source="uCHEo-O8apgH9ctibJvO-12" target="uCHEo-O8apgH9ctibJvO-6">
          <mxGeometry width="50" height="50" relative="1" as="geometry">
            <mxPoint x="570" y="1365" as="sourcePoint" />
            <mxPoint x="590" y="1330" as="targetPoint" />
          </mxGeometry>
        </mxCell>
        <mxCell id="uCHEo-O8apgH9ctibJvO-9" value="" style="endArrow=classic;html=1;rounded=0;exitX=1;exitY=0.5;exitDx=0;exitDy=0;" edge="1" parent="1" source="uCHEo-O8apgH9ctibJvO-6" target="uCHEo-O8apgH9ctibJvO-5">
          <mxGeometry width="50" height="50" relative="1" as="geometry">
            <mxPoint x="340" y="1450" as="sourcePoint" />
            <mxPoint x="390" y="1400" as="targetPoint" />
          </mxGeometry>
        </mxCell>
        <mxCell id="uCHEo-O8apgH9ctibJvO-10" value="données standard CSV" style="text;html=1;strokeColor=none;fillColor=none;align=center;verticalAlign=middle;whiteSpace=wrap;rounded=0;" vertex="1" parent="1">
          <mxGeometry x="770" y="1325" width="60" height="30" as="geometry" />
        </mxCell>
        <mxCell id="uCHEo-O8apgH9ctibJvO-11" value="" style="shape=image;html=1;verticalAlign=top;verticalLabelPosition=bottom;labelBackgroundColor=#ffffff;imageAspect=0;aspect=fixed;image=https://cdn4.iconfinder.com/data/icons/core-ui-outlined/32/outlined_settings-128.png" vertex="1" parent="1">
          <mxGeometry x="720" y="1380" width="30" height="30" as="geometry" />
        </mxCell>
        <mxCell id="uCHEo-O8apgH9ctibJvO-12" value="Api-Agro&lt;br&gt;AGDATAHUB" style="rounded=0;whiteSpace=wrap;html=1;" vertex="1" parent="1">
          <mxGeometry x="480" y="1322.5" width="80" height="90" as="geometry" />
        </mxCell>
        <mxCell id="uCHEo-O8apgH9ctibJvO-13" value="" style="sketch=0;pointerEvents=1;shadow=0;dashed=0;html=1;strokeColor=none;labelPosition=center;verticalLabelPosition=bottom;verticalAlign=top;outlineConnect=0;align=center;shape=mxgraph.office.security.lock_protected;fillColor=#CCCBCB;" vertex="1" parent="1">
          <mxGeometry x="530" y="1300" width="30" height="30" as="geometry" />
        </mxCell>
        <mxCell id="uCHEo-O8apgH9ctibJvO-14" value="API Proxy" style="text;html=1;strokeColor=none;fillColor=none;align=center;verticalAlign=middle;whiteSpace=wrap;rounded=0;" vertex="1" parent="1">
          <mxGeometry x="490" y="1250" width="60" height="30" as="geometry" />
        </mxCell>
        <mxCell id="uCHEo-O8apgH9ctibJvO-15" value="" style="endArrow=none;dashed=1;html=1;rounded=0;strokeWidth=2;entryX=0.5;entryY=1;entryDx=0;entryDy=0;exitX=0.5;exitY=0;exitDx=0;exitDy=0;" edge="1" parent="1" source="uCHEo-O8apgH9ctibJvO-12" target="uCHEo-O8apgH9ctibJvO-14">
          <mxGeometry width="50" height="50" relative="1" as="geometry">
            <mxPoint x="380" y="1390" as="sourcePoint" />
            <mxPoint x="430" y="1340" as="targetPoint" />
          </mxGeometry>
        </mxCell>
      </root>
    </mxGraphModel>
  </diagram>
</mxfile>
